# xmcd CD database file
#
# Track frame offsets:
#	150
#	16773
#	36951
#	51320
#	62198
#
# Disc length: 1197 seconds
#
# Revision: 0
# Processed by: cddbd v1.5.1PL0 Copyright (c) Steve Scherf et al.
# Submitted via: CDex 1.51
#
DISCID=3d04ab05
DTITLE=Bit By Bats - Let's Go Romeo
DYEAR=2005
DGENRE=Rock
TTITLE0=All Night
TTITLE1=Neon Flux
TTITLE2=Money Green
TTITLE3=Tiger Blue
TTITLE4=Golden Radio
EXTD=YEAR: 2005
EXTT0=
EXTT1=
EXTT2=
EXTT3=
EXTT4=
PLAYORDER=
